<svg t="1660659923905" class="icon" viewBox="0 0 1024 1024" version="1.1" xmlns="http://www.w3.org/2000/svg" p-id="1952" width="200" height="200"><path d="M528.06716 335.363582c-4.40056-4.40056-10.131521-6.54967-15.964821-6.54967-5.321607 0-10.643214 1.944433-14.941435 5.730961-1.330402 0.818709-2.456126 1.842095-3.581851 2.967819L348.872277 482.219468c-8.801119 8.801119-8.801119 23.026184 0 31.827304 8.801119 8.801119 23.435539 8.801119 32.236658 0L490.201879 405.363182 490.201879 744.001599c0 12.485309 10.029182 22.514491 22.514491 22.514491s22.514491-10.029182 22.514491-22.514491L535.230861 405.363182l106.125125 106.636818c8.801119 8.801119 22.821507 8.801119 31.622626 0 8.801119-8.801119 8.698781-23.026184-0.102339-31.827304L528.06716 335.363582z" p-id="1953"></path><path d="M283.068559 305.992405l460.523686 0c12.485309 0 22.514491-10.029182 22.514491-22.514491s-10.029182-22.514491-22.514491-22.514491l-460.523686 0c-12.485309 0-22.514491 10.029182-22.514491 22.514491S270.58325 305.992405 283.068559 305.992405z" p-id="1954"></path></svg>